<svg width="10" height="20" viewBox="0 0 10 20" fill="none" xmlns="http://www.w3.org/2000/svg">
<path d="M9.63577 0.837158L7.32139 0.833344C4.72125 0.833344 3.04093 2.60425 3.04093 5.3452V7.42547H0.713921C0.51284 7.42547 0.350006 7.59293 0.350006 7.79949V10.8136C0.350006 11.0201 0.513025 11.1874 0.713921 11.1874H3.04093V18.7928C3.04093 18.9994 3.20377 19.1667 3.40485 19.1667H6.44094C6.64202 19.1667 6.80485 18.9992 6.80485 18.7928V11.1874H9.52567C9.72675 11.1874 9.88958 11.0201 9.88958 10.8136L9.8907 7.79949C9.8907 7.70031 9.85226 7.60533 9.78412 7.53514C9.71598 7.46495 9.62315 7.42547 9.5266 7.42547H6.80485V5.662C6.80485 4.81441 7.00148 4.38412 8.07632 4.38412L9.6354 4.38355C9.8363 4.38355 9.99913 4.21609 9.99913 4.00972V1.21098C9.99913 1.00481 9.83648 0.83754 9.63577 0.837158Z" fill="#F4013D"/>
</svg>
