<svg width="18" height="18" viewBox="0 0 18 18" fill="none" xmlns="http://www.w3.org/2000/svg">
<path fill-rule="evenodd" clip-rule="evenodd" d="M0.666687 8.99987C0.666687 6.35893 0.666687 5.03846 1.11076 4.00146C1.66713 2.70219 2.70234 1.66698 4.00161 1.1106C5.03861 0.666534 6.35908 0.666534 9.00002 0.666534C11.641 0.666534 12.9614 0.666534 13.9984 1.1106C15.2977 1.66698 16.3329 2.70219 16.8893 4.00146C17.3334 5.03846 17.3334 6.35893 17.3334 8.99987C17.3334 11.6408 17.3334 12.9613 16.8893 13.9983C16.3329 15.2975 15.2977 16.3328 13.9984 16.8891C12.9614 17.3332 11.641 17.3332 9.00002 17.3332C6.35908 17.3332 5.03861 17.3332 4.00161 16.8891C2.70234 16.3328 1.66713 15.2975 1.11076 13.9983C0.666687 12.9613 0.666687 11.6408 0.666687 8.99987ZM9.00005 4.5883C6.56365 4.5883 4.58828 6.56367 4.58828 9.00006C4.58828 11.4365 6.56365 13.4118 9.00005 13.4118C11.4364 13.4118 13.4118 11.4365 13.4118 9.00006C13.4118 6.56367 11.4364 4.5883 9.00005 4.5883ZM9.00005 11.7574C7.48019 11.7574 6.24269 10.5199 6.24269 9.00006C6.24269 7.47911 7.48019 6.24271 9.00005 6.24271C10.5199 6.24271 11.7574 7.47911 11.7574 9.00006C11.7574 10.5199 10.5199 11.7574 9.00005 11.7574ZM14.3305 4.25703C14.3305 4.5817 14.0673 4.8449 13.7426 4.8449C13.418 4.8449 13.1548 4.5817 13.1548 4.25703C13.1548 3.93236 13.418 3.66916 13.7426 3.66916C14.0673 3.66916 14.3305 3.93236 14.3305 4.25703Z" fill="#F4013D"/>
</svg>
