<svg width="20" height="20" viewBox="0 0 20 20" fill="none" xmlns="http://www.w3.org/2000/svg">
<path d="M18.3292 18.3333V18.3327H18.3333V12.2201C18.3333 9.22987 17.6896 6.92639 14.1938 6.92639C12.5132 6.92639 11.3854 7.84862 10.925 8.72292H10.8764V7.20556H7.5618V18.3327H11.0132V12.8229C11.0132 11.3722 11.2882 9.96945 13.0847 9.96945C14.8549 9.96945 14.8813 11.625 14.8813 12.916V18.3333H18.3292Z" fill="#F4013D"/>
<path d="M1.94165 7.20624H5.39721V18.3333H1.94165V7.20624Z" fill="#F4013D"/>
<path d="M3.66805 1.66666C2.56318 1.66666 1.66666 2.56318 1.66666 3.66805C1.66666 4.77291 2.56318 5.68818 3.66805 5.68818C4.77291 5.68818 5.66943 4.77291 5.66943 3.66805C5.66874 2.56318 4.77221 1.66666 3.66805 1.66666V1.66666Z" fill="#F4013D"/>
</svg>
