<svg width="121" height="121" viewBox="0 0 121 121" fill="none" xmlns="http://www.w3.org/2000/svg">
<path d="M30.25 90.75H70.5833" stroke="white" stroke-width="7" stroke-linecap="round" stroke-linejoin="round"/>
<path d="M15.125 110.917H105.875" stroke="white" stroke-width="7" stroke-linecap="round" stroke-linejoin="round"/>
<path d="M70.5837 110.917C79.9436 110.917 88.9202 107.199 95.5386 100.58C102.157 93.9617 105.875 84.9851 105.875 75.6252C105.875 66.2652 102.157 57.2887 95.5386 50.6702C88.9202 44.0517 79.9436 40.3335 70.5837 40.3335H65.542" stroke="white" stroke-width="7" stroke-linecap="round" stroke-linejoin="round"/>
<path d="M45.375 70.5834H55.4583" stroke="white" stroke-width="2" stroke-linecap="round" stroke-linejoin="round"/>
<path d="M40.333 30.25H60.4997" stroke="white" stroke-width="2" stroke-linecap="round" stroke-linejoin="round"/>
<path d="M65.542 50.4168V32.771C65.542 32.1024 65.2764 31.4612 64.8037 30.9885C64.3309 30.5158 63.6897 30.2502 63.0212 30.2502C62.3526 30.2502 61.7114 29.9846 61.2387 29.5118C60.7659 29.0391 60.5003 28.3979 60.5003 27.7293V15.1252C60.5003 13.788 59.9691 12.5057 59.0237 11.5602C58.0782 10.6147 56.7958 10.0835 55.4587 10.0835H45.3753C44.0382 10.0835 42.7558 10.6147 41.8103 11.5602C40.8648 12.5057 40.3337 13.788 40.3337 15.1252V27.7293C40.3337 28.3979 40.0681 29.0391 39.5953 29.5118C39.1226 29.9846 38.4814 30.2502 37.8128 30.2502C37.1443 30.2502 36.5031 30.5158 36.0303 30.9885C35.5576 31.4612 35.292 32.1024 35.292 32.771V50.4168C35.292 55.9627 39.8295 60.5002 45.3753 60.5002H55.4587C58.1329 60.5002 60.6977 59.4378 62.5886 57.5468C64.4796 55.6558 65.542 53.0911 65.542 50.4168Z" stroke="white" stroke-width="7" stroke-linecap="round" stroke-linejoin="round"/>
</svg>
