<svg width="18" height="14" viewBox="0 0 18 14" fill="none" xmlns="http://www.w3.org/2000/svg">
<path d="M17.75 1.81039C17.1059 2.08367 16.4148 2.26901 15.6887 2.35175C16.4301 1.92662 16.9976 1.2523 17.2666 0.451275C16.5711 0.844972 15.8035 1.13085 14.9855 1.28582C14.3305 0.616732 13.3988 0.199982 12.3653 0.199982C10.3827 0.199982 8.77523 1.7392 8.77523 3.63653C8.77523 3.90562 8.80694 4.16844 8.86819 4.41976C5.88501 4.27629 3.23973 2.90775 1.46928 0.828215C1.1598 1.33502 0.983743 1.92555 0.983743 2.55592C0.983743 3.74856 1.618 4.80089 2.58033 5.41655C1.992 5.39772 1.43866 5.24275 0.954233 4.98516V5.02809C0.954233 6.69295 2.19213 8.08243 3.83353 8.39867C3.5328 8.47616 3.21568 8.51909 2.88761 8.51909C2.6558 8.51909 2.43161 8.4971 2.2118 8.45521C2.66889 9.82166 3.99429 10.8153 5.56463 10.8426C4.33657 11.764 2.7881 12.3117 1.10624 12.3117C0.816463 12.3117 0.53103 12.2949 0.25 12.2645C1.83893 13.2415 3.7253 13.8111 5.75273 13.8111C12.3566 13.8111 15.9665 8.57355 15.9665 4.03129L15.9544 3.58628C16.6597 3.10459 17.2699 2.49938 17.75 1.81039Z" fill="#F4013D"/>
</svg>
