<svg width="126" height="125" viewBox="0 0 126 125" fill="none" xmlns="http://www.w3.org/2000/svg">
<path d="M84 109.375V98.9583C84 93.433 81.7875 88.134 77.8492 84.2269C73.911 80.3199 68.5695 78.125 63 78.125H31.5C25.9305 78.125 20.589 80.3199 16.6508 84.2269C12.7125 88.134 10.5 93.433 10.5 98.9583V109.375" stroke="white" stroke-width="5" stroke-linecap="round" stroke-linejoin="round"/>
<path d="M47.25 57.2917C58.848 57.2917 68.25 47.9643 68.25 36.4583C68.25 24.9524 58.848 15.625 47.25 15.625C35.652 15.625 26.25 24.9524 26.25 36.4583C26.25 47.9643 35.652 57.2917 47.25 57.2917Z" stroke="white" stroke-width="5" stroke-linecap="round" stroke-linejoin="round"/>
<path d="M115.5 109.375V98.9584C115.497 94.3424 113.948 89.8582 111.097 86.21C108.246 82.5618 104.255 79.9561 99.75 78.8021" stroke="white" stroke-width="5" stroke-linecap="round" stroke-linejoin="round"/>
<path d="M84 16.3021C88.5172 17.4495 92.5209 20.0558 95.3801 23.71C98.2393 27.3642 99.7912 31.8585 99.7912 36.4844C99.7912 41.1103 98.2393 45.6046 95.3801 49.2588C92.5209 52.9131 88.5172 55.5193 84 56.6667" stroke="white" stroke-width="5" stroke-linecap="round" stroke-linejoin="round"/>
</svg>
